<svg xmlns="http://www.w3.org/2000/svg" viewBox="0 0 837.85 115"><defs><style>.cls-1{fill:#2c3357;}</style></defs><g id="Layer_2" data-name="Layer 2"><g id="artwork"><path class="cls-1" d="M102.25,0h-.12a57.46,57.46,0,0,0-40,16.29,44.74,44.74,0,1,0,0,82.41A57.49,57.49,0,1,0,102.25,0Zm-.09,102.22A44.77,44.77,0,0,1,57.44,57.5H44.66a57,57,0,0,0,8.91,30.68A31.93,31.93,0,1,1,76.67,57.5H89.44a44.32,44.32,0,0,0-16-34.25,44.7,44.7,0,1,1,28.69,79ZM501.35,38.15v10C505,41.45,513.28,37,521.69,37c14.69,0,26.08,11.82,26.08,26.83s-11.39,26.72-26.08,26.72c-8.63,0-16.61-4.26-20.34-11V111.5h-6.28V38.15Zm-.42,25.65c0,11.5,8.83,20.87,20.33,20.87,11.18,0,20-9.16,20-20.87,0-11.92-8.84-21-20-21C509.76,42.83,500.93,52.2,500.93,63.8ZM571.18,60l17-1.92v-3c0-7.77-4.9-12.35-13-12.35-7.13,0-11.92,3.73-14,10.44l-6.06-1.71c2.55-8.94,10.22-14.48,20-14.48,12.24,0,19.27,6.92,19.27,18.53V89.35h-6.07V80.73c-3.51,6-10.33,9.79-18.73,9.79-9.69,0-16.29-6-16.29-14.37C553.4,66.89,559.25,61.25,571.18,60Zm-.43,24.8c10.22,0,17.46-7.55,17.46-16.5V63.59l-16,1.81c-8.09,1-12.35,4.79-12.35,10.33S564.36,84.77,570.75,84.77Zm59.16-41h-.64c-.42,0-.74-.11-1.49-.11-10,0-16.92,8.62-16.92,20.55V89.35h-6.39V38.15h6.28V48.79c2.23-6.17,9.58-11.5,17.25-11.5.53,0,1.06.11,1.38.11h.53Zm34-5.64h6.39V47c3.08-5.64,9.47-10,18.09-10,13,0,21.08,8.84,21.08,22.57V89.35h-6.38V60.29c0-10.65-5.86-17.46-16-17.46-9.9,0-16.82,8.2-16.82,18.74V89.35h-6.39Zm101.2,39a24.23,24.23,0,0,1-22.25,13.41c-15,0-25.86-11.07-25.86-26.82C717,48.37,727.83,37,742.42,37c14.37,0,24.7,11.5,24.7,26.41,0,.74-.11,1.17-.11,1.59v.64H723.47v.11a19.24,19.24,0,0,0,19.48,19c8.2,0,13.31-3.94,16.82-10.22ZM723.58,60.18h37c-.85-10-8.3-17.56-18.31-17.56A19,19,0,0,0,723.58,60.18Zm76.75-16.39h-.64c-.43,0-.75-.11-1.49-.11-10,0-16.93,8.62-16.93,20.55V89.35h-6.39V38.15h6.28V48.79c2.24-6.17,9.59-11.5,17.25-11.5.53,0,1.07.11,1.38.11h.54Zm8.35,30.76c1.7,6,5.85,10.33,12.35,10.33,5.53,0,10.43-3.19,10.43-8.94,0-4.58-3-6.82-8.41-8.84L817,65c-8.2-2.87-12.24-7.66-12.24-14.37,0-8.2,6.81-13.63,15.65-13.63a16.89,16.89,0,0,1,16.39,12.25l-5.64,2.23c-1.6-5.11-5.32-8.94-10.86-8.94-5.11,0-9.26,3-9.26,7.67,0,4.15,2.66,7.23,8.09,9l5.86,2c8.51,3,12.88,7.34,12.88,14.26,0,9.48-8,15-16.93,15-9.69-.1-16-5.75-18-13.84ZM658.4,38.15v5.74h-8.2V89.35h-6.39V43.89h-8.2V38.15h8.2V22.39h6.39V38.15Z"/><path class="cls-1" d="M204.08,89.45H191.92V38.09h12.16V44.9c3.25-4.92,8.49-8.07,15.72-8.07,12.58,0,19.91,8.28,19.91,21.7V89.45H227.56V60.83c0-8-4-12.78-11.43-12.78-7.23,0-12,5.55-12,14.36Zm44.44-22.12V38.09h12.16V66.6c0,8.07,4,12.89,10.69,12.89s10.69-4.82,10.69-12.89V38.09h12.15V67.33c0,14.78-8.59,23.37-22.84,23.37S248.52,82.11,248.52,67.33Zm48.9-29.24h12.89L324,73.72l13.84-35.63h12.57L329.28,89.45H318.59ZM401.06,63.77c0-15.41-10.59-26.94-25.57-26.94-14.78,0-26.1,11.53-26.1,26.94,0,15.82,11.11,26.93,26.73,26.93,10.9,0,18.86-5.24,23.16-13.31l-10-4.71c-2.93,4.5-6.39,7.75-13.1,7.75-7.65,0-14.25-5.55-14.78-13H401C401.06,66,401.06,64.71,401.06,63.77Zm-39.51-5.14a14.31,14.31,0,0,1,13.73-11.84c7.44,0,12.89,5,13.73,11.84Zm57.91,30.82H407.3V38.09h12.16V44.9c2.83-4.92,7.65-8.07,14.67-8.07,7.45,0,12.79,3.57,15.62,9.54a19.13,19.13,0,0,1,17.08-9.54c11.85,0,18.66,8.18,18.66,21.07V89.45H473.33V60.21c0-7.55-3.46-12.27-9.85-12.27-6.6,0-10.9,5.35-11,13.73V89.45H440.32V60.62c0-8-3.46-12.68-9.85-12.68-6.71,0-11,5.45-11,14.26Z"/></g></g></svg>